<?xml version="1.0" encoding="utf-8"?>
<!-- Generator: Adobe Illustrator 24.0.2, SVG Export Plug-In . SVG Version: 6.00 Build 0)  -->
<svg version="1.1" id="Layer_1" xmlns="http://www.w3.org/2000/svg" xmlns:xlink="http://www.w3.org/1999/xlink" x="0px" y="0px"
	 viewBox="0 0 100 100" style="enable-background:new 0 0 100 100;" xml:space="preserve">
<style type="text/css">
	.st0{fill:#CB514F;}
	.st1{fill:#FFFFFF;}
	.st2{clip-path:url(#SVGID_2_);}
	.st3{fill:#CB514F;stroke:#CB514F;stroke-width:1.27;stroke-miterlimit:10;}
</style>
<circle class="st0" cx="50" cy="50" r="40.2"/>
<path class="st1" d="M38.5,40.2c-1.2,5.2-1.6,9.6,0.2,14c1.2,3,4,4.3,6.4,3.3s2.9-3.9,1.4-7c-0.2-0.4-0.4-0.7-0.6-1.1
	C43.2,46.5,40.7,43.4,38.5,40.2 M64.7,43.1c-2.9,3.5-7,4.6-10.8,6.1c-1.8,0.7-3.3,2.2-4,4c-1.3,2.8,0.3,5.2,3.4,5.1
	c1.3-0.1,2.6-0.5,3.7-1.2C62.1,54,64.3,49.1,64.7,43.1 M46.7,33.7c4.7,1.2,7.3-1.5,5.9-6.3c-1.3-4.2-4.5-7.4-5-12.5
	c-3.8,5.7-4,11-1.2,18.4c-2.3-0.9-3-3.4-5.2-5.1c-0.8,5-0.8,9.5,1.2,13.8c2.2,4.6,5.6,4.8,8.4,0.7c2.3,3.5,4.8,4.2,7.2,2
	c4.4-3.9,4.5-15.7-0.2-20.2c-0.5,6.2-5.1,10.2-7.1,15.7C50.3,37.4,47.6,36.1,46.7,33.7 M41.8,68.9c1-3,0.1-6.3-2.2-8.4
	c-1.9-1.8-3.5-4-4.7-6.3c-0.5-1-1.4-2-2-0.1c-1.5,4.7-2.4,9.5,0.1,14.2c2.1,3.8,4.5,4.4,8.1,1.8c0.1,5.3,1.8,6.8,7.1,5.2
	c7.5-2.3,11.6-7.8,14.4-15.6c-4,2.1-7.2,3.8-10.8,4.4C48.2,64.7,44.5,65.9,41.8,68.9"/>
<path class="st1" d="M46,56.2c-1.6,4.8-7.6,14.6-10.5,19.5c-0.7,1.2-1.5,2.8,0.2,3.8s3.2,0,4.1-1.5c6.8-10.4,12.1-21.5,12.9-34
	c0.6-8.4-1.6-16.7-6.2-23.8C50.2,33.8,49.5,46,46,56.2"/>
<g>
	<defs>
		<rect id="SVGID_1_" x="8.3" y="9.2" width="81.6" height="81.6"/>
	</defs>
	<clipPath id="SVGID_2_">
		<use xlink:href="#SVGID_1_"  style="overflow:visible;"/>
	</clipPath>
	<g class="st2">
		<circle class="st3" cx="49.1" cy="50" r="40.2"/>
	</g>
</g>
<path class="st1" d="M24.4,34c-0.4-0.9-0.4-2,0.1-2.9c0.2-0.4,0.2-0.9-0.1-1.3c-0.7-1-1-2.1-0.9-3.3c0-0.2,0-0.5,0.2-0.4
	c1,0.2,1.7-0.8,2.8-0.4c0.6,0.2,0.8-0.6,0.8-1.1s0-0.8,0.8-0.7c1.4,0.2,2.7,0.1,3.3,1.6c0.2,0.5,0.5,0.1,0.7,0c0.2-0.2,0.6-1.1,1,0
	c0.1,0.2,0.3,0,0.5,0c1.1-0.1,2.2,0,3.1,0.5c0.7,0.3,1.1,1.2,0.8,1.9c-0.4,0.9-0.2,1.9,0.5,2.6c0.1-0.7,0.1-1.3-0.1-2
	c-0.1-0.2-0.1-0.6,0-0.8c0.4-0.4,0.6-1.1,1.1-1.1c0.3,0,0.6,0.7,0.8,1.2c0.4,0.8,0.2,1.3-0.3,1.9c-0.6,0.6-0.6,1.6,0,2.2
	c0,0,0,0.1,0.1,0.1c2.6,2.6,5,5.3,7.5,8c1.9,1.8,4,3.5,6.2,5.1c6,4.8,11.8,9.9,17.3,15.4c1.8,1.8,3.5,3.8,5,5.9
	c1.4,2.1,1.3,3.5-0.3,5.4c-0.8,0.9-1.7,1.6-2.7,2.2c-1.7,1.2-4.1,1.1-5.6-0.3c-1.9-1.6-4-2.9-5.9-4.5c-6.2-5.4-12-11.2-17.5-17.4
	c-2.9-3.2-6.6-5.4-10-7.9l-0.9-0.6c-1.9-1.4-2.5-1.3-4.3,0.2c-0.5,0.4-1,0.3-1.6,0.2c-1-0.2-1.6-1-2.6-0.9c0.6-0.9,0.6-0.9,5.3-1.8
	c-1-0.7-2.2-0.8-3.3-0.4c-1.6,0.3-2.5-0.4-3.2-1.8c-0.6-1-0.5-2.2-1-3.2c-0.3-0.7,0.3-0.6,0.6-0.5c0.6,0.1,1.3-0.2,1.6-0.7
	c0.1,0.1,0.2,0.2,0.4,0.1S24.4,34.1,24.4,34 M35.5,36c-0.1-0.9-0.8-1.3-1.2-2l-0.2,0.3L35.5,36 M36.1,31.2c1,0.7,1.5,1.9,2.7,2.7
	C38.4,32.6,37.4,31.5,36.1,31.2 M30.4,38.2c0,1.3,5,5.3,6.8,5.3L30.4,38.2 M33.1,35.9c-0.7,1.8,0.3,3.1,4,5
	C36,39.1,34.6,37.4,33.1,35.9 M52.2,52.4c-3-2.2-14.3-8.5-14.3-8.5 M41.8,37.9l-2.7-3.6c0,0,2.4,3.5,2.9,4.5
	c1.7,2.8,6.4,10.3,6.4,10.3S43.8,40.5,41.8,37.9"/>
</svg>
