<?xml version="1.0" encoding="UTF-8"?>
<svg id="Layer_1" xmlns="http://www.w3.org/2000/svg" version="1.1" viewBox="0 0 100 100">
  <!-- Generator: Adobe Illustrator 29.0.0, SVG Export Plug-In . SVG Version: 2.1.0 Build 186)  -->
  <defs>
    <style>
      .st0 {
        fill: #017f00;
      }
    </style>
  </defs>
  <path class="st0" d="M78,25.7c-2.2.6-6.7,2-7.3,4.1-.6,2,.2,4-1.1,5.7,3-.5,4.9-2.3,6.8-3.9,0-2.4,1.3-4.3,1.6-5.9Z"/>
  <path class="st0" d="M86.3,30.6c-5.1,0-8.8,1.3-10.9,4.2,3.7,1.3,6.6.7,8.9-1.1,1-.9,2.1-2.2,2-3.1Z"/>
  <path class="st0" d="M68.1,36.4c0-.4,0-1,0-1.6.2-1.5,1.7-3.1,1.1-3.6-5.3.8-7.8,3.5-7.5,9.9,1.9-1.1,5.6-2.3,6.3-4.7h0Z"/>
  <path class="st0" d="M71.9,36.6c-1.8.6-2.9,2.5-4.4,3.1,5.1,1.2,11.2,1.1,13.2-2.9-3.1.2-6.2-1-8.8-.2Z"/>
  <path class="st0" d="M73.3,42.5c-2.2-.2-3.9-1.1-5.9-1.3-3.6-.4-5.6,2.7-8.1,3.7,5.1,1.4,11.4,1.1,14-2.4Z"/>
  <path class="st0" d="M53.2,49.6c2.4-.2,4.4,1.1,6.3,1,2.4-.2,3.9-2.3,5.7-3.4-2.4,1-4.1-.6-5.9-.8-2.7-.3-4,2.3-6.2,3.3h.1Z"/>
  <path class="st0" d="M64.2,73.3c-1.2-1.3-2.1-4-3.1-5.9-3.2-6-6.6-12.5-9.3-18,2.1-.9,1-5.1,2.1-7-2.4-.6-4.4,1.2-5.5,1.8-1.3-2.8-2.7-6-4.4-8.9-1.4-2.4-3.7-6.1-5.5-7.8-5.4-4.8-14.8-1.5-18.9,1.8-.8.6-1.9,1.5-1.8,2.1,4-2.3,11-4.2,15.1-1.1,1.4,1,2.5,3.1,3.6,4.9,3.3,5.2,7,11.2,8.9,16.7-2.2,1.9-5.3,3.4-8,5.2-5.3,3.6-9.7,7.4-14.5,11.9-1.8,1.7-9.1,7.3-3.6,8.9,3.5-5.9,7.5-11.4,15.3-13-2.4,4.7-4.5,10.4-5,16.4.7-1.1,1.3-2.1,2.1-3.1,1.1-1.2,3.2-2.4,4.1-3.6.7-.9.9-2.4,1.5-3.6,1.7-3.5,3.6-7,4.9-10.7-2-.3-4.3.3-6,.8,1.5-1.4,2.9-2.2,4.9-3.6.9-.6,3.5-3.6,5-3.4,1.1,0,2.6,3.5,3.2,4.7,2.2,4,3.6,6.6,5.7,10.2,1,1.8,1.7,3.9,2.8,5.2,1.7,2.2,5.5,3.7,8.5,3.9,5.3.4,10.6-2.4,12.7-5.9-3.6,2.2-11.4,4.5-14.8,1h0Z"/>
  <path class="st0" d="M60.1,41.8c.3-1.8-.6-4.3.5-5.7-1.7,1.7-4.6,1.7-5.4,4.2-.6,1.8,0,4-1,6,2.4-.3,5.5-2.4,5.9-4.6h0Z"/>
  <path class="st0" d="M84,16C74.9,7,62.9,2,50.1,2s-24.8,5-33.9,14C7.2,25.1,2.2,37.1,2.2,49.9s5,24.8,14,33.9c9,9,21.1,14,33.9,14s24.8-5,33.9-14c9-9,14-21.1,14-33.9s-5-24.8-14-33.9ZM50.1,95.3c-25,0-45.4-20.4-45.4-45.4S25.1,4.5,50.1,4.5s45.4,20.4,45.4,45.4-20.4,45.4-45.4,45.4Z"/>
</svg>