<?xml version="1.0" encoding="UTF-8"?>
<svg id="Layer_1" xmlns="http://www.w3.org/2000/svg" version="1.1" viewBox="0 0 100 100">
  <!-- Generator: Adobe Illustrator 29.0.0, SVG Export Plug-In . SVG Version: 2.1.0 Build 186)  -->
  <defs>
    <style>
      .st0 {
        fill: red;
      }

      .st1 {
        fill: none;
        stroke: red;
        stroke-miterlimit: 10;
        stroke-width: 3px;
      }
    </style>
  </defs>
  <g id="Layer_11" data-name="Layer_1">
    <path class="st0" d="M84,16C74.9,7,62.9,2,50.1,2s-24.8,5-33.9,14C7.2,25.1,2.2,37.1,2.2,49.9s5,24.8,14,33.9c9,9,21.1,14,33.9,14s24.8-5,33.9-14c9-9,14-21.1,14-33.9s-5-24.8-14-33.9ZM50.1,95.3c-25,0-45.4-20.4-45.4-45.4S25.1,4.5,50.1,4.5s45.4,20.4,45.4,45.4-20.4,45.4-45.4,45.4Z"/>
  </g>
  <g id="Layer_2">
    <path class="st1" d="M66.7,65s-22.3-11.8-38.3-5.4c-16,6.4-20.8-16.3-5.2-17.6s32.3-21.8,32.3-21.8"/>
    <path class="st1" d="M68.3,40.4c2.2,11.8,2.4,23.2-1.7,24-4.1.8-9.2-8.2-11.4-19.9-2.2-11.8-3.1-23.5,1-24.3s9.8,8.5,12,20.2h0Z"/>
    <path class="st1" d="M53.9,35.5s13.4,2.9,3.4,16.8"/>
    <line class="st1" x1="24.1" y1="41.9" x2="28.3" y2="59.5"/>
    <path class="st1" d="M30.8,58.7l8.3,16.7s6.9,4.6,7.7-3.8l-3.7-7.2-3.5-6.8"/>
    <line class="st1" x1="43.1" y1="64.6" x2="35.6" y2="67.3"/>
    <line class="st1" x1="78.8" y1="20.2" x2="71.2" y2="26.3"/>
    <line class="st1" x1="84.4" y1="37.1" x2="76.8" y2="38.8"/>
    <line class="st1" x1="87.2" y1="54.3" x2="78.3" y2="52.2"/>
  </g>
</svg>