<?xml version="1.0" encoding="utf-8"?>
<!-- Generator: Adobe Illustrator 26.0.1, SVG Export Plug-In . SVG Version: 6.00 Build 0)  -->
<svg version="1.1" id="Layer_1" xmlns="http://www.w3.org/2000/svg" xmlns:xlink="http://www.w3.org/1999/xlink" x="0px" y="0px"
	 viewBox="0 0 100 100" style="enable-background:new 0 0 100 100;" xml:space="preserve">
<style type="text/css">
	.st0{fill:#E4AD3E;}
	.st1{fill:#FFFFFF;}
</style>
<circle class="st0" cx="50" cy="50" r="40.2"/>
<path class="st1" d="M68.5,53.8c0,12.3-8.3,22.3-18.5,22.3s-18.5-10-18.5-22.3S39.8,23.9,50,23.9c3.8,0,7.4,2.5,10.3,6.2
	c-0.4,0.6-0.9,1.2-1.3,1.7l0.3,1.3L58,32.8l-0.2,0.5l-1.1-0.1l0.3,1.3l-0.4,0.4l0.3,1l-0.8-0.2L55,37.4c0.4-0.2,0.7-0.4,1-0.6
	l0.6-0.5l1.2,0.4l-0.4-1l0.4-0.3l0.1-1.1l1,0.3l0.3-0.2l1.2,0.3l-0.1-1.2c0.5-0.4,1-0.8,1.6-1.1C66,38.7,68.3,46.2,68.5,53.8"/>
</svg>
