<?xml version="1.0" encoding="utf-8"?>
<!-- Generator: Adobe Illustrator 26.0.1, SVG Export Plug-In . SVG Version: 6.00 Build 0)  -->
<svg version="1.1" id="Layer_1" xmlns="http://www.w3.org/2000/svg" xmlns:xlink="http://www.w3.org/1999/xlink" x="0px" y="0px"
	 viewBox="0 0 100 100" style="enable-background:new 0 0 100 100;" xml:space="preserve">
<style type="text/css">
	.st0{fill:#CB514F;}
	.st1{fill:#FFFFFF;}
</style>
<circle class="st0" cx="50" cy="50" r="40.2"/>
<path class="st1" d="M28.6,49.6c-1.4-0.1-2.5-1.3-2.4-2.7c0.1-1.4,1.3-2.5,2.7-2.4c1.3,0.1,2.4,1.2,2.4,2.5
	C31.3,48.4,30.1,49.6,28.6,49.6 M35.2,34.6c-10.7,4.5-17.7,14-17.7,14s4.7,5.5,9.6,4.3c0.3-0.1,0.3,0.7,0.1,0.9
	c-0.3,0.5-1,0.5-1.6,0.5c-3,0-6.2-2.4-7.8-3.9c2.3,2.7,8.5,9.4,16.5,13.1C40.4,53.7,36.1,37.7,35.2,34.6"/>
<path class="st1" d="M69.8,45.5c-2.6-2.8-5.6-5.3-8.7-7.4c-0.7-0.5-1.1-1.9-4.3-4.3c-5-3.7-5.3-3.4-9.9-3.6c-0.3,0-1.6,2.3-1.9,2.3
	c-3,0-5.9,0.6-8.6,1.7c0.9,3,5.6,19.4-0.8,29.8c2.4,1,5,1.6,7.7,1.9c0.6,0,1.2,0.1,1.8,0.1c0.9,0,1.8-0.1,2.7-0.2
	c1.4-0.2,2.9-0.5,4.3-0.9c8.4-2.5,15.3-9,18.7-12.8c0,0,6.2,8.8,8.4,7.7c2.4-1.1-0.7-6.4-1-11.8c-0.3-5.1,2.4-10.3,0.8-11.4
	C76.7,35.3,69.8,45.5,69.8,45.5"/>
</svg>
