<?xml version="1.0" encoding="utf-8"?>
<!-- Generator: Adobe Illustrator 26.0.1, SVG Export Plug-In . SVG Version: 6.00 Build 0)  -->
<svg version="1.1" id="Layer_1" xmlns="http://www.w3.org/2000/svg" xmlns:xlink="http://www.w3.org/1999/xlink" x="0px" y="0px"
	 viewBox="0 0 100 100" style="enable-background:new 0 0 100 100;" xml:space="preserve">
<style type="text/css">
	.st0{fill:#CB514F;}
	.st1{fill:none;}
	.st2{fill:#FFFFFF;}
</style>
<circle class="st0" cx="50" cy="50" r="40.2"/>
<rect x="9.2" y="9.2" class="st1" width="81.6" height="81.6"/>
<path class="st2" d="M45.8,39c-4.6,3.3-11.1,0-11.1,0s3.4-7.2,6.2-10.5H51c2.8,3.3,6.2,10.5,6.2,10.5S50.3,35.7,45.8,39 M53.2,28.3
	c0.7-0.5,1-1.3,1-2.1c0.1-1.1-0.7-2.2-1.8-2.4h-13c-1.1,0.2-1.9,1.2-1.8,2.4c0,0.8,0.3,1.6,1,2.1c-2.1,3.2-4,6.5-5.6,10l-0.2,0.4
	v33.8c0.1,3.5,3,6.3,6.5,6.3h13.3c3.5,0.1,6.4-2.8,6.5-6.3V38.6L59,38.3C57.3,34.8,55.4,31.5,53.2,28.3"/>
<path class="st2" d="M68.2,63.4c-1.9,1.3-6.7,0-6.7,0l-0.4-4.7h13.8l-0.4,4.7C74.5,63.4,70.1,62.2,68.2,63.4 M59.9,57.6l1.6,20.6h13
	l1.6-20.6H59.9z"/>
</svg>
