<?xml version="1.0" encoding="utf-8"?>
<!-- Generator: Adobe Illustrator 26.0.1, SVG Export Plug-In . SVG Version: 6.00 Build 0)  -->
<svg version="1.1" id="Layer_1" xmlns="http://www.w3.org/2000/svg" xmlns:xlink="http://www.w3.org/1999/xlink" x="0px" y="0px"
	 viewBox="0 0 100 100" style="enable-background:new 0 0 100 100;" xml:space="preserve">
<style type="text/css">
	.st0{fill:#CB514F;}
	.st1{fill:#FFFFFF;}
</style>
<circle class="st0" cx="50" cy="50" r="40.2"/>
<path class="st1" d="M45.6,69c10.2-1.2,19.7-5.5,27.4-12.2C64.5,62.3,55.3,66.4,45.6,69 M36.8,28.8c-3.8,9.8-5.2,20.4-4,30.9
	C33.6,49.3,34.5,39,36.8,28.8 M48,26.7c-6.8,10-12.9,20.2-12.3,32.7C36.5,47.5,42.7,37.2,48,26.7 M70.8,47.5
	c-8.5,8.6-19.4,14-29.7,20.3C52.3,62.7,63.1,57.2,70.8,47.5 M55.4,31.5c-7.7,9.6-14.2,19.9-18.2,31.4C42.7,52.1,49,41.8,55.4,31.5
	 M38.5,65.9c9.7-8.8,19-17.9,25.7-29.1C56.2,47.1,47.1,56.3,38.5,65.9 M75.6,46.7c1.6,9-2.2,20.5-14.9,23.2
	c-1.1,0.3-2.2,0.6-3.3,0.8c-1.9,0.1-3.6,1.4-4.2,3.3c-1.4,3.6-3.3,4-6.2,1.3c-1-0.9-2-1.9-2.9-2.9c-1-1.3-2.7-2.1-4.3-1.9
	c-1.3,0.2-2.7-0.3-3.5-1.3c-1.6-2.3-3.9-3.6-6.4-4.7c-1.1-0.5-2.2-1.1-3.2-1.8c-3.1-2.2-3.2-3.3-0.6-6c1.3-1.3,1-2.6,0.6-4
	c-1.4-4.3-2.4-8.7-1.7-13.3c0.5-3.5,2.3-6.8,5.1-9c4.6-4,10.6-6.1,16.8-5.9C61.3,24.3,73.3,33.7,75.6,46.7"/>
</svg>
