<?xml version="1.0" encoding="utf-8"?>
<!-- Generator: Adobe Illustrator 26.0.1, SVG Export Plug-In . SVG Version: 6.00 Build 0)  -->
<svg version="1.1" id="Layer_1" xmlns="http://www.w3.org/2000/svg" xmlns:xlink="http://www.w3.org/1999/xlink" x="0px" y="0px"
	 viewBox="0 0 100 100" style="enable-background:new 0 0 100 100;" xml:space="preserve">
<style type="text/css">
	.st0{fill:#E4AD3E;}
	.st1{fill:#FFFFFF;}
</style>
<circle class="st0" cx="50" cy="50" r="40.2"/>
<path class="st1" d="M49,78.7h-0.1c-0.2,0-0.5,0-0.7,0s-0.6,0-0.9-0.1c-0.6,0-1.1-0.1-1.7-0.2c-1.6-0.2-3.2-0.6-4.7-1.2
	c-0.3-0.1-0.6-0.3-0.9-0.4c-0.1-0.1-0.2-0.2-0.3-0.3c-0.6-0.8-1-1.7-1.1-2.7c-0.1-0.3-0.1-0.7-0.1-1c0-0.5,0-1-0.1-1.6
	c0-0.3,0-0.6,0-0.9c0-0.5,0-1,0-1.4s0-0.7,0-1c0-0.5,0-1,0-1.5s0-0.8,0-1.2s0-1,0-1.5s0-1,0-1.4s0-1.2,0-1.8s0-1.2,0-1.8
	s0-1.4,0-2.2c0-1,0-2,0-3c0-1.5,0-3,0-4.5c0-0.3,0-0.7,0-1c0-0.7,0-1.3,0-2S38,44.6,38,44s0.1-1,0.1-1.5c0.1-0.7,0.3-1.3,0.6-1.9
	c0.5-1,1-2,1.6-3c0.5-0.8,1-1.5,1.5-2.3l1.8-2.6l0.5-0.7c0.1-0.1,0.1-0.2,0.1-0.4c0-0.4,0-0.7,0-1.1c0-0.1,0-0.2,0-0.3
	c0-0.1,0-0.2,0-0.3c0-0.8,0-1.5,0-2.3c0-0.7,0-1.3,0-2c0-0.1,0-0.2,0-0.3c0-0.1,0-0.3,0.1-0.4c0.1-0.1,0.2-0.2,0.3-0.2
	c0.3-0.2,0.7-0.3,1-0.4c0.6-0.2,1.3-0.3,1.9-0.4h0.3c0.1,0,0.1-0.1,0.2-0.1v-0.2l1.4-6.9l0.5-2.5v-0.2c0-0.1,0.1-0.2,0.2-0.2
	c0.5-0.3,1.2-0.3,1.7,0c0.1,0.1,0.2,0.2,0.2,0.3c0.1,0.4,0.1,0.7,0.2,1.1l1.7,8.5c0,0,0,0.1,0,0.1c0,0.1,0.1,0.2,0.2,0.2l0.8,0.1
	c0.5,0.1,1,0.2,1.5,0.3c0.3,0.1,0.5,0.2,0.8,0.3c0.1,0.1,0.2,0.1,0.3,0.2c0.1,0.1,0.1,0.1,0.2,0.2c0,0.1,0,0.2,0,0.3
	c0,0.1,0,0.2,0,0.3c0,0.2,0,0.5,0,0.7s0,0.7,0,1.1c0,0.8,0,1.6,0,2.5c0,0.1,0,0.1,0,0.2c0,0.1,0,0.2,0,0.2c0,0.1,0,0.1,0,0.2
	c0,0.3,0,0.7,0,1c0,0.1,0,0.2-0.1,0.2h-0.1c-0.1,0-0.1,0.1,0,0.1l0.1,0.1c0.7,0.8,1.3,1.7,1.9,2.5c0.9,1.2,1.6,2.4,2.4,3.7
	c0.5,0.8,0.9,1.7,1.2,2.6c0.2,0.5,0.3,1,0.3,1.5c0,0.5,0.1,0.9,0.1,1.3s0,0.7,0.1,1c0.1,1,0,2,0,3c0,0.1,0,0.2,0,0.3v8
	c0,0.1,0,0.2,0,0.3c0,1.5,0,3,0,4.6c0,0.7,0,1.4,0,2.1s0,1.4,0,2s0,1.1,0,1.7s0,1.2,0,1.8s0,1,0,1.5c0,0.8,0,1.5-0.1,2.2
	c0,0.3,0,0.7-0.1,1c-0.2,1-0.7,1.9-1.4,2.7c-0.1,0.1-0.1,0.1-0.2,0.2c-0.3,0.2-0.5,0.3-0.8,0.5c-0.7,0.4-1.4,0.7-2.2,0.9
	c-0.7,0.2-1.4,0.4-2.1,0.5c-0.8,0.1-1.6,0.2-2.4,0.3c-0.5,0-1.1,0.1-1.6,0.1s-1,0-1.5,0.1c-0.1,0-0.2,0-0.3,0L49,78.7z M60,46.2
	c0,0-7.7,0.8-10.3,0.8c-2.3,0-9-0.8-9-0.8v19.1c0,0,6.8,0.6,9,0.6c2.6,0,10.2-0.6,10.2-0.6L60,46.2z"/>
</svg>
