<?xml version="1.0" encoding="utf-8"?>
<!-- Generator: Adobe Illustrator 26.0.1, SVG Export Plug-In . SVG Version: 6.00 Build 0)  -->
<svg version="1.1" id="Layer_1" xmlns="http://www.w3.org/2000/svg" xmlns:xlink="http://www.w3.org/1999/xlink" x="0px" y="0px"
	 viewBox="0 0 100 100" style="enable-background:new 0 0 100 100;" xml:space="preserve">
<style type="text/css">
	.st0{fill:#E4AD3E;}
	.st1{fill:none;}
	.st2{fill:#FFFFFF;}
</style>
<circle class="st0" cx="50" cy="50" r="40.2"/>
<rect x="9.2" y="9.2" class="st1" width="81.6" height="81.6"/>
<path class="st2" d="M46.2,81.2c-11.6,0-20.3-10.1-18.2-20.8c0.8-4.1,2.5-7.9,5.1-11.2c4.4-5.5,6.5-11.6,7.4-18.5
	c1.1-8.8,7.8-13.8,16.8-13.2C64.9,18,71.4,26.6,69.4,33c-1,3.3-2,6.7-3.3,10c-1.8,4.7-2.3,9.8-1.5,14.7c1.2,8.6-3,17.1-10.6,21.5
	C51.6,80.6,48.9,81.3,46.2,81.2 M43,75.9c0,1.8,1,2.9,2.4,2.9c1.9-0.1,4.2-3,4.1-5.3c0-1.5-0.6-2.8-2.4-2.8S43,73.4,43,75.9
	 M29.8,63.8c0.4,1.7,0.4,4,2.9,3.9s3-2.5,3-4.5c0-1.8-0.3-4-2.8-3.9C30.3,59.4,30.2,61.8,29.8,63.8 M41.9,51.4
	c-0.1-1.2-0.5-2.4-2.2-2.6c-1.9-0.2-4.3,2.7-4.3,5.1c0,1.5,0.5,2.8,2.4,2.9S41.9,54.1,41.9,51.4 M43.9,62.1c0.2-1.4-0.8-2.6-2.2-2.8
	c-0.1,0-0.2,0-0.3,0c-2,0.1-4.2,2.9-4,5.4c0.1,1.4,0.6,2.6,2.3,2.7C41.5,67.4,43.9,64.5,43.9,62.1 M46,64.8c0.2,1.3,0.6,2.7,2.5,2.6
	s4.2-3,4-5.3c-0.1-1.4-0.6-2.5-2.3-2.5C48.2,59.6,45.9,62.3,46,64.8 M52,70.5c-0.1,1.2,0.8,2.3,2.1,2.4c0.1,0,0.1,0,0.2,0
	c2.1,0.1,4.2-2.5,4.2-5.1C58.4,66.3,58,65,56,65S51.9,67.9,52,70.5 M34.3,71.7c0,2.6,2.2,5.4,4.1,5.4s2.3-1.3,2.3-2.9
	c0-2.3-2.1-5-4-5S34.4,70.3,34.3,71.7 M49.5,51.7c0-1.3-0.4-2.6-2.3-2.7s-4,2.7-4,5.1c0,1.5,0.4,2.9,2.3,2.9S49.5,54.3,49.5,51.7"/>
</svg>
