<?xml version="1.0" encoding="utf-8"?>
<!-- Generator: Adobe Illustrator 26.0.1, SVG Export Plug-In . SVG Version: 6.00 Build 0)  -->
<svg version="1.1" id="Layer_1" xmlns="http://www.w3.org/2000/svg" xmlns:xlink="http://www.w3.org/1999/xlink" x="0px" y="0px"
	 viewBox="0 0 100 100" style="enable-background:new 0 0 100 100;" xml:space="preserve">
<style type="text/css">
	.st0{fill:#CB514F;}
	.st1{fill:#FFFFFF;}
</style>
<circle class="st0" cx="50" cy="50" r="40.2"/>
<path class="st1" d="M61.5,60.3c-2.6-2-3.9-6.5-2.3-8.5s3.4-1.3,5-0.1c2.5,1.8,3.8,6.5,2.3,8.5C65.4,61.7,63.4,61.7,61.5,60.3"/>
<path class="st1" d="M37.7,63.6c-1.8-2-4.2-4.1-2.2-6.8c1.9-2.5,4.5-1,6.4,0.4c2.2,1.7,4.2,4,2.3,6.7S39.8,64.6,37.7,63.6"/>
<path class="st1" d="M34.4,41.3c2.9,2.2,4.1,6.7,2.4,8.6s-3.4,1.3-5.1,0c-2.6-2-3.6-6.8-1.9-8.5C31.4,39.8,33,40.4,34.4,41.3"/>
<path class="st1" d="M47.5,48.1c2.5,1.9,3.7,6.7,2.1,8.6c-1.5,1.7-3.2,1.2-4.8,0.1c-2.7-1.9-4-6.4-2.4-8.5
	C43.6,46.8,45.7,46.7,47.5,48.1"/>
<path class="st1" d="M52.1,48.2c-2.8-2.1-3.9-6.5-2.2-8.5c1.4-1.7,3.1-1.3,4.7-0.2c2.6,1.8,3.9,6.5,2.3,8.4S53.7,49.2,52.1,48.2"/>
<path class="st1" d="M63.2,46.9c-2.8-2.1-4.1-6.7-2.5-8.7s3.3-1.3,5,0c2.8,2,3.7,6.4,1.9,8.4C66.1,48.3,64.5,47.8,63.2,46.9"/>
<path class="st1" d="M49.9,65.5c-1.4-1.2-2.3-2.7-0.6-4.6s6.2-1.8,8.7,0.2c1.6,1.2,2.6,2.8,1.1,4.7C57.5,67.7,52.7,67.7,49.9,65.5"
	/>
<path class="st1" d="M41,33.8c2.7,2.2,3.9,6.7,2.3,8.4s-3.4,1.2-5.1-0.1c-2.5-2-3.7-6.4-2.1-8.2S39.6,32.8,41,33.8"/>
</svg>
