<?xml version="1.0" encoding="utf-8"?>
<!-- Generator: Adobe Illustrator 26.0.1, SVG Export Plug-In . SVG Version: 6.00 Build 0)  -->
<svg version="1.1" id="Layer_1" xmlns="http://www.w3.org/2000/svg" xmlns:xlink="http://www.w3.org/1999/xlink" x="0px" y="0px"
	 viewBox="0 0 100 100" style="enable-background:new 0 0 100 100;" xml:space="preserve">
<style type="text/css">
	.st0{fill:#CB514F;}
	.st1{fill:none;}
	.st2{fill:#FFFFFF;}
</style>
<circle class="st0" cx="50" cy="50" r="40.2"/>
<rect x="9.2" y="9.2" class="st1" width="81.6" height="81.6"/>
<path class="st2" d="M64.4,73.4c1,0,2.2,0.1,3.5,0c4.6-0.3,5.3-1.6,3.4-5.7c-2.2-5.2-6.9-9.1-12.4-10.4c-2.7-0.5-4.9-2.5-5.6-5.2
	c-1.1-3.5-3.2-6.3-6.9-7.5c-2.8-0.8-5-3-5.7-5.8c-2-6.6-7.7-9.5-13.5-12.2c-1-0.4-2.1-0.6-1.9,0.9c0.7,6.9,0,14.2,6.5,19.2
	c1.6,1.3,2.7,3.1,3,5.1c1.3,6.1,5.1,9.6,11.2,11c2.8,0.6,5.4,1.9,6.5,4.5C54.7,72.8,58.9,74,64.4,73.4"/>
</svg>
