<?xml version="1.0" encoding="utf-8"?>
<!-- Generator: Adobe Illustrator 26.0.1, SVG Export Plug-In . SVG Version: 6.00 Build 0)  -->
<svg version="1.1" id="Layer_1" xmlns="http://www.w3.org/2000/svg" xmlns:xlink="http://www.w3.org/1999/xlink" x="0px" y="0px"
	 viewBox="0 0 100 100" style="enable-background:new 0 0 100 100;" xml:space="preserve">
<style type="text/css">
	.st0{fill:#CB514F;}
	.st1{fill:none;}
	.st2{fill:#FFFFFF;}
</style>
<circle class="st0" cx="50" cy="50" r="40.2"/>
<rect x="9.2" y="9.2" class="st1" width="81.6" height="81.6"/>
<path class="st2" d="M56.3,13.7c0.5,0.6,0.5,1.5-0.1,2c0,0,0,0,0,0c-0.9,1.3-0.7,2.7-0.8,4c-0.7,5,1.2,9.4,3.4,13.8
	c1.9,3.9,3.6,7.8,5.4,11.7c3.1,7,6.1,13.9,9.2,20.8c1.4,3,0.7,5.9-0.6,8.5c-0.8,1.6-2.9,2-4.7,2c-12.3,0-24.6,0-36.9,0
	c-2.5,0-4.3-2.5-4.6-5.7c-0.4-3.4,1.1-6.4,2.4-9.4c4.9-11.2,9.8-22.4,14.7-33.6c1.7-3.7,1.7-8,0.2-11.8c-0.2-0.5-0.7-1.1,0-1.4
	s1,0.4,1.3,0.8c0.6,1,0.9,2.1,1,3.3c0.3,4.6-0.7,9.2-2.8,13.2c-3.3,7.1-6.2,14.4-9.6,21.6c-0.8,1.6-0.3,2.4,1.6,2.4h29
	c2.1,0,2.6-0.9,1.8-2.7c-2.6-5.7-5.2-11.4-7.8-17.1c-1.3-2.7-2.8-5.3-3.7-8.1c-1.2-4-0.7-8.2-0.2-12.2
	C54.6,14.9,55.3,14.1,56.3,13.7 M46.1,66.4c-0.2-0.3-0.4-0.6-0.7-0.8c-0.4-0.2-0.7-0.4-1.1-0.5c-0.5-0.2-1-0.3-1.5-0.4l-1-0.2
	c-0.2-0.1-0.4-0.1-0.6-0.2c-0.2-0.1-0.3-0.2-0.4-0.3c-0.1-0.1-0.2-0.3-0.2-0.5c0-0.3,0.2-0.6,0.5-0.8c0.4-0.2,0.8-0.3,1.2-0.3
	c0.4,0,0.8,0.1,1.2,0.3c0.3,0.2,0.5,0.5,0.6,0.8c0.1,0.2,0.2,0.4,0.4,0.5c0.1,0.1,0.3,0.2,0.5,0.2c0.2,0,0.5-0.1,0.6-0.3
	c0.2-0.2,0.2-0.4,0.2-0.6c0-0.3-0.1-0.5-0.2-0.8c-0.2-0.3-0.4-0.5-0.6-0.7c-0.3-0.3-0.7-0.4-1.1-0.6c-0.5-0.2-1-0.2-1.6-0.2
	c-0.7,0-1.4,0.1-2,0.3c-0.5,0.2-1,0.5-1.3,0.9c-0.3,0.4-0.4,0.9-0.4,1.4c0,0.5,0.1,1,0.4,1.4c0.3,0.4,0.7,0.7,1.1,0.9
	c0.6,0.2,1.2,0.4,1.8,0.6c0.5,0.1,0.9,0.2,1.3,0.3c0.3,0.1,0.5,0.2,0.8,0.4c0.2,0.2,0.3,0.5,0.3,0.8c0,0.4-0.2,0.8-0.5,1
	c-0.4,0.3-0.9,0.4-1.4,0.4c-0.3,0-0.7-0.1-1-0.2c-0.2-0.1-0.4-0.3-0.6-0.5c-0.2-0.2-0.3-0.5-0.4-0.8c-0.1-0.2-0.2-0.4-0.4-0.6
	c-0.1-0.1-0.3-0.2-0.5-0.2c-0.2,0-0.5,0.1-0.6,0.2c-0.2,0.2-0.3,0.4-0.2,0.6c0,0.4,0.2,0.8,0.4,1.2c0.3,0.4,0.7,0.8,1.1,1
	c0.7,0.4,1.6,0.6,2.4,0.5c0.7,0,1.4-0.1,2.1-0.4c0.5-0.2,1-0.6,1.3-1.1c0.3-0.4,0.5-1,0.5-1.5C46.4,67.2,46.3,66.8,46.1,66.4z
	 M50.4,61.3c-0.6,0.2-1.1,0.6-1.5,1c-0.4,0.4-0.7,1-0.9,1.5c-0.2,0.6-0.3,1.3-0.3,2c0,0.7,0.1,1.4,0.3,2c0.2,0.6,0.5,1.1,0.9,1.6
	c0.4,0.4,0.9,0.8,1.5,1c1.3,0.5,2.8,0.5,4.1,0c0.6-0.2,1.1-0.6,1.5-1c0.4-0.4,0.7-1,0.9-1.5c0.2-0.6,0.3-1.3,0.3-2
	c0-0.9-0.2-1.8-0.6-2.5c-0.4-0.7-0.9-1.4-1.7-1.8c-0.8-0.4-1.7-0.6-2.6-0.6C51.7,60.9,51,61,50.4,61.3z M54.8,67.6
	c-0.2,0.5-0.6,0.9-1,1.1c-0.8,0.4-1.7,0.5-2.5,0.2c-0.3-0.1-0.6-0.4-0.9-0.6c-0.3-0.3-0.5-0.7-0.6-1.1c-0.1-0.5-0.2-1-0.2-1.4
	c0-0.5,0.1-1,0.2-1.4c0.1-0.4,0.3-0.7,0.6-1c0.2-0.3,0.5-0.5,0.9-0.6c0.3-0.1,0.7-0.2,1.1-0.2c0.5,0,1,0.1,1.5,0.4
	c0.4,0.3,0.8,0.7,1,1.1c0.2,0.6,0.4,1.2,0.3,1.8C55.2,66.4,55.1,67,54.8,67.6z M60.3,71.2c0.3-0.3,0.5-0.5,0.8-0.7l0.9-0.7
	c0.2-0.2,0.4-0.4,0.5-0.6c0.2-0.3,0.3-0.6,0.2-0.9c0-0.2,0-0.4-0.1-0.6c-0.2-0.4-0.4-0.7-0.8-0.8c-0.3-0.1-0.7-0.2-1-0.2
	c-0.3,0-0.6,0-0.9,0.1c-0.2,0.1-0.4,0.2-0.6,0.4c-0.2,0.1-0.3,0.3-0.4,0.5c-0.1,0.2-0.1,0.4-0.1,0.6c0,0.1,0,0.3,0.1,0.3
	c0.1,0.1,0.2,0.1,0.3,0.1c0.1,0,0.3,0,0.3-0.1c0.1-0.1,0.2-0.2,0.2-0.4c0-0.1,0.1-0.2,0.1-0.3c0.2-0.3,0.5-0.4,0.8-0.4
	c0.2,0,0.3,0,0.5,0.1c0.1,0.1,0.2,0.2,0.3,0.3c0.1,0.1,0.1,0.3,0.1,0.4c0,0.2,0,0.3-0.1,0.5c-0.1,0.2-0.2,0.3-0.3,0.5
	c-0.2,0.2-0.4,0.3-0.5,0.4c-0.2,0.2-0.4,0.3-0.6,0.5c-0.3,0.3-0.6,0.6-1,0.9c-0.1,0.1-0.2,0.2-0.2,0.4c-0.1,0.1-0.1,0.2-0.1,0.4
	c0,0.1,0.1,0.3,0.2,0.4c0.1,0.1,0.3,0.2,0.5,0.2h3c0.1,0,0.3,0,0.4-0.1c0.1-0.1,0.1-0.2,0.1-0.3c0-0.1-0.1-0.3-0.2-0.3
	c-0.1-0.1-0.3-0.1-0.5-0.1h-2.1C60.1,71.3,60.2,71.3,60.3,71.2z"/>
</svg>
