<?xml version="1.0" encoding="utf-8"?>
<!-- Generator: Adobe Illustrator 26.0.1, SVG Export Plug-In . SVG Version: 6.00 Build 0)  -->
<svg version="1.1" id="Layer_1" xmlns="http://www.w3.org/2000/svg" xmlns:xlink="http://www.w3.org/1999/xlink" x="0px" y="0px"
	 viewBox="0 0 100 100" style="enable-background:new 0 0 100 100;" xml:space="preserve">
<style type="text/css">
	.st0{fill:#E4AD3E;}
	.st1{fill:#FFFFFF;}
</style>
<circle class="st0" cx="50" cy="50" r="40.2"/>
<path class="st1" d="M71.9,40.4c-1.5-2.9-4.1-4.7-6.6-6.6c-2-1.5-3.1-3.2-2.5-5.8c0.2-1,0.7-2.1-0.8-2.7s-2.1,0.1-2.7,1.1
	c-1.5,2-3.5,2.4-5.9,2c-2.5-0.4-5-0.8-7.5-1.1c-3.5-0.6-7.1,0.7-9.4,3.5c-1.6,1.7-2.8,3.8-3.4,6.1c-1.1,4.3-1.2,4.3,3,6.2l13.8,6.1
	l14.7,6.5c0.1,0,0.2,0.1,0.3,0.1c2.2,1.4,3.8,0.6,5.4-1.2C74,50.8,74.6,45,71.9,40.4z M67.9,48.1c0-0.2,0-0.3,0-0.5
	c0-0.2-0.1-0.3-0.1-0.5c-0.1-0.1-0.1-0.2-0.2-0.3c-0.3-0.6-0.7-1.1-1.2-1.6c-0.9-0.8-1.8-1.5-2.7-2.2c-0.5-0.3-2-1.7-2.4-2
	c-1.2-0.9-1.5-2.6-0.5-3.8c0.5-0.7,1.3-1.1,2.2-1.1c1.7,0.6,3.3,1.5,4.7,2.7c0.3,0.4,1,1.3,1.1,1.4c0.8,1.2,1.4,2.4,1.7,3.8
	c0.2,0.6,0.7,2.1,0.7,2.2c0.1,0.7,0.2,1.3,0.2,2c0,1-0.8,1.7-1.8,1.7C68.6,49.9,67.8,49.1,67.9,48.1L67.9,48.1z"/>
<path class="st1" d="M63.3,57.8c-4.8-2-9.6-4.2-14.5-6.4s-9.8-4.3-14.7-6.6c-1.9-0.9-2.9-0.5-3.9,1.3c-6.3,10.7-4.9,20.8,2.3,30.6
	c1.9,2.7,3.3,3.4,7.1,3.3c13.3-0.3,20.5-7.6,25.3-18.3C65.8,59.7,65.3,58.7,63.3,57.8z M59.7,61c0,1-0.2,2.1-0.7,3
	c-4,6.4-10.6,9.4-17.8,12.2c0.4-2,1.6-2.4,2.5-3.2c4-3.4,7.7-7,9.8-11.9c0.4-0.8,0.9-1.5,1.5-2.1c0.7-1,2-1.4,3.2-1
	C59.3,58.6,60,59.8,59.7,61z"/>
</svg>
