<?xml version="1.0" encoding="UTF-8"?>
<svg id="Layer_1" xmlns="http://www.w3.org/2000/svg" version="1.1" viewBox="0 0 100 100">
  <!-- Generator: Adobe Illustrator 29.0.0, SVG Export Plug-In . SVG Version: 2.1.0 Build 186)  -->
  <defs>
    <style>
      .st0 {
        fill: #017f00;
      }
    </style>
  </defs>
  <path class="st0" d="M84,16C74.9,7,62.9,2,50.1,2s-24.8,5-33.9,14C7.2,25.1,2.2,37.1,2.2,49.9s5,24.8,14,33.9c9,9,21.1,14,33.9,14s24.8-5,33.9-14c9-9,14-21.1,14-33.9s-5-24.8-14-33.9ZM50.1,95.3c-25,0-45.4-20.4-45.4-45.4S25.1,4.5,50.1,4.5s45.4,20.4,45.4,45.4-20.4,45.4-45.4,45.4Z"/>
  <path class="st0" d="M76.3,21.5c-1.4.4-4.4,1-6.6,1.5-5.6,1.1-6.5,1.4-9.1,3.3-3.6,2.7-6.1,7.8-6.1,12.5,0,1.8.3,3,.6,2.7,0,0,.3-.6.5-1.1,1.1-2.6,4.2-6.5,6.8-8.7,1.4-1.1,4.1-2.2,4.1-1.6s-.9,1.4-2,2.5c-1,1.1-1.4,1.6-3.3,4.4-2,3-4.7,8.3-6.4,13-1.7,4.6-3,8.2-3.8,11-1.4,4.7-2.7,8.4-2.9,8.5-.3.1-1.1-2.4-2.7-8.7-2.5-9.8-3.6-13.1-6.2-19.3-1.8-4.2-4.1-7.5-8.8-12.6-2.6-2.8-6.3-5.5-8.5-6.3-1.4-.5-1.6-.2-.5,1,5.1,5.8,8.1,10.1,11.3,16.2,2.7,5.2,4.5,10.3,7.8,22.2.8,3,2.7,10.7,3.3,13.7.7,3.3,1.4,6.6,1.6,7.1,0,.2.3.4.6.4.6.2,3.5.2,4.1,0,.9-.3,1.1-1,2.4-9.3.8-5.6,1.6-9,3-14,2.4-8.5,5-14.8,6.6-15.8.2-.1,1.4-.4,2.5-.6,4.6-.8,8.2-2.8,10.9-6,1.7-2.1,2.2-3.7,2.6-9,.2-2.8.4-3.6.9-5.3.3-1.1.6-2.1.5-2.2-.1-.3-.4-.3-3.3.5Z"/>
</svg>