<?xml version="1.0" encoding="UTF-8"?>
<svg id="Layer_1" xmlns="http://www.w3.org/2000/svg" version="1.1" viewBox="0 0 100 100">
  <!-- Generator: Adobe Illustrator 29.0.0, SVG Export Plug-In . SVG Version: 2.1.0 Build 186)  -->
  <defs>
    <style>
      .st0 {
        fill: #227f0b;
      }
    </style>
  </defs>
  <path id="path3729" class="st0" d="M50.1,3.3c-12.3,0-24,4.9-32.7,13.5C8.7,25.5,3.9,37.3,3.9,49.6c0,23.8,18,43.7,41.6,46,0-1.5-.2-3-.3-4.2-1.9-13.6-4.5-27.3-8.9-40.3-5.8-17-18.1-33.9-18.1-33.9,0,0,6.1,2.6,8.8,4.8,4.1,3.3,7.7,8.5,10.6,13,7.6,12.4,13.1,39.2,13.1,39.2,0,0,6-16.3,9.8-24.1,3.4-6.9,8.2-13.7,12-19.9-2.3-.3-4.2,1.6-6.1,3.1-2.6,2.2-6.6,9.3-6.6,9.3,0,0,.6-8.2,1.5-10.9,1.4-3.9,4.2-7.3,7.4-9,2.3-1.2,12.9-3,16.5-3.6-8.8-10.1-21.5-15.9-34.8-15.9h0M89.4,25.2c-.6,4.7-1.8,10.9-3.9,14.1-1.4,2.1-5.2,3.9-7.5,5-3.7,1.8-9.4,2-9.4,2,0,0-5.6,10.2-7.5,15.7-3.8,10.7-6.4,22.5-7.7,33.2,0,.2,0,.3,0,.5,24.2-1.7,43-21.9,43-46.1,0-8.6-2.4-17-6.9-24.3h0"/>
</svg>