<?xml version="1.0" encoding="utf-8"?>
<!-- Generator: Adobe Illustrator 26.0.1, SVG Export Plug-In . SVG Version: 6.00 Build 0)  -->
<svg version="1.1" id="Layer_1" xmlns="http://www.w3.org/2000/svg" xmlns:xlink="http://www.w3.org/1999/xlink" x="0px" y="0px"
	 viewBox="0 0 100 100" style="enable-background:new 0 0 100 100;" xml:space="preserve">
<style type="text/css">
	.st0{fill:#E3AC3D;}
	.st1{fill:#FFFFFF;}
</style>
<circle class="st0" cx="50" cy="50" r="40.2"/>
<path class="st1" d="M38.5,40.2c-1.2,5.2-1.6,9.6,0.2,14c1.2,3,4,4.3,6.4,3.3s2.9-3.9,1.4-7c-0.2-0.4-0.4-0.7-0.6-1.1
	C43.2,46.5,40.7,43.4,38.5,40.2 M64.7,43.1c-2.9,3.5-7,4.6-10.8,6.1c-1.8,0.7-3.3,2.2-4,4c-1.3,2.8,0.3,5.2,3.4,5.1
	c1.3-0.1,2.6-0.5,3.7-1.2C62.1,54,64.3,49.1,64.7,43.1 M46.7,33.7c4.7,1.2,7.3-1.5,5.9-6.3c-1.3-4.2-4.5-7.4-5-12.5
	c-3.8,5.7-4,11-1.2,18.4c-2.3-0.9-3-3.4-5.2-5.1c-0.8,5-0.8,9.5,1.2,13.8c2.2,4.6,5.6,4.8,8.4,0.7c2.3,3.5,4.8,4.2,7.2,2
	c4.4-3.9,4.5-15.7-0.2-20.2c-0.5,6.2-5.1,10.2-7.1,15.7C50.3,37.4,47.6,36.1,46.7,33.7 M41.8,68.9c1-3,0.1-6.3-2.2-8.4
	c-1.9-1.8-3.5-4-4.7-6.3c-0.5-1-1.4-2-2-0.1c-1.5,4.7-2.4,9.5,0.1,14.2c2.1,3.8,4.5,4.4,8.1,1.8c0.1,5.3,1.8,6.8,7.1,5.2
	c7.5-2.3,11.6-7.8,14.4-15.6c-4,2.1-7.2,3.8-10.8,4.4C48.2,64.7,44.5,65.9,41.8,68.9"/>
<path class="st1" d="M46,56.2c-1.6,4.8-7.6,14.6-10.5,19.5c-0.7,1.2-1.5,2.8,0.2,3.8s3.2,0,4.1-1.5c6.8-10.4,12.1-21.5,12.9-34
	c0.6-8.4-1.6-16.7-6.2-23.8C50.2,33.8,49.5,46,46,56.2"/>
</svg>
