<?xml version="1.0" encoding="UTF-8"?>
<svg id="Layer_1" data-name="Layer 1" xmlns="http://www.w3.org/2000/svg" viewBox="0 0 310.54 176.07">
  <defs>
    <style>
      .cls-1, .cls-2 {
        fill: #09a64b;
      }

      .cls-2 {
        fill-rule: evenodd;
      }
    </style>
  </defs>
  <g>
    <g>
      <path class="cls-2" d="M116.56,3.05l-2.83,5.91c-1.12-.04-2.86.07-4.81.26l-28.62,53.3h-11.16l27.5-51.68c-.15.02-.24.04-.24.04-24.33,1.75-50.23,8.16-50.23,8.16L54.5,2.97l46.3.06,1.61-3.03h11.46l-1.63,3.05h4.33ZM172.44,22.43c-9.04-.02-20.83,9.19-26.32,20.57-5.5,11.38-2.62,20.61,6.42,20.62,9.04.02,20.83-9.19,26.32-20.57,5.5-11.38,2.62-20.61-6.42-20.62ZM155.99,60.62c3.12-.6,5.53-4.93,5.53-4.93l13.97-26.54c1.91-4.12-1.91-5.13-5.33-4.12-3.42,1-4.92,4.02-4.92,4.02l-14.68,26.54c-2.71,4.93,2.52,5.59,5.43,5.03ZM147.45,29.25s3.22-4.42,2.71-6.13c-.5-1.71-3.72-.2-3.72-.2l-22.14,7.88,7.56-14.52s3.32-5.53.1-9.45c-2.53-3.09-4.32-4.02-13.47-3.62l-2.51,5.63h7.34s2.21.2,1.61,2.31c-.6,2.11-26.44,50.47-26.44,50.47h9.75l14.28-27.4c3.19-1.13,12.93-4.57,13.77-4.57,1.01,0,.1,1.61.1,1.61l-13.97,25.64s-2.81,4.52-2.01,5.53c.8,1.01,3.02.2,3.02.2l17.39-6.53v-1.91s-6.74,2.92-7.54,2.31c-.8-.6.3-2.21.3-2.21l13.87-25.03ZM241.82,27.6s2.42-3.3,1.61-4.91c-.81-1.61-4.11-.44-4.11-.44l-16.93,5.96,1.85-3.39s.6-1.71-.1-2.01c-.71-.3-1.41-.8-4.52.6-2.66,1.2-12.79,4.97-15.7,6.04l2.53-4.64s.6-1.71-.1-2.01c-.7-.3-1.41-.8-4.52.6-3.12,1.41-16.49,6.33-16.49,6.33l.5,1.81s7.54-2.61,7.34-1.51c-.2,1.11-15.88,31.97-15.88,31.97h8.85l16.2-29.67c2.59-.96,8.79-3.17,8.63-2.29-.2,1.11-15.88,31.97-15.88,31.97h8.85l16.58-30.37c2.98-1.03,9.61-3.28,10.01-3.17.51.15.22.88.22.88l-15.47,28.74s-1.76,3.3-.95,4.18c.81.88,2.42.22,2.42.22l18.77-7.4-.51-1.61-6.6,2.57c-2.2.66-1.39-1.32-1.39-1.32l14.81-27.12ZM99.73,94.77s8.42-3.16,8.94-3.02c.51.14.22.85.22.85l-15.47,27.91s-1.76,3.2-.95,4.06c.81.85,2.42.21,2.42.21l20.56-7.87-.51-1.57-8.39,3.17c-2.2.64-1.39-1.28-1.39-1.28l14.87-25.73s2.85-4.9,2.4-5.83c-.56-1.17-4.82.5-4.82.5l-18.43,6.71.56,1.89ZM123.57,68.59c-5.48,0-9.92,2.61-9.92,5.83s4.44,5.83,9.92,5.83,9.92-2.61,9.92-5.83-4.44-5.83-9.92-5.83ZM99.65,76.9c-1.23,6.06-9.04,12.98-22.4,18.58,1.18.28,2.29.85,2.71,1.98,1.02,2.77,0,7.87,0,7.87l-1.17,11.96s0,2.77,2.62,1.75c2.62-1.02,9.04-3.79,9.04-3.79l.73,2.04-18.08,7.88s-1.46,1.02-3.65-.58c-2.19-1.6-1.46-5.83-1.46-5.83l1.6-16.48s.68-2.39-2.18-3.25c-2.55.79-5.23,1.53-8.05,2.22l-12.82,23.2h-11.08l29.13-54.49c-7.05,1.07-12.94,2.72-12.94,2.72l.29-2.33s17.94-5.25,27.86-4.67c9.92.58,21.58,2.63,19.83,11.23ZM88.13,76.32c.05-5.06-4.8-6.91-10.98-7.22l-15.92,28.8c6.11-1.7,26.76-8.41,26.89-21.58ZM146.61,117.3c-1.17,2.19,1.02,1.46,1.02,1.46l9.48-3.36.15,2.04-21.15,7.29c-4.67,1.75-1.9-3.5-1.9-3.5l3.86-6.93-16.84,9.99s-1.9,1.46-3.5.29c-1.6-1.17-.44-12.69,6.27-23.33,6.67-10.59,22.14-24.63,28.05-12.02l6.96-12.48s1.46-2.04,1.61-2.92c.14-.87-1.02-.73-1.02-.73l-8.46,2.62-.29-1.75s21.73-9.04,22.75-8.17c1.02.87.29,2.62.29,2.62l-27.27,48.86ZM150.48,92.05c-.4-1.93-1.02-3.77-1.97-4.21-2.19-1.02-7.58-.15-13.86,10.5-6.27,10.65-7.15,16.48-4.52,16.77,2.08.23,7.53-2.73,9.72-3.98l10.63-19.08ZM174.18,75.88s7.15-2.33,8.75-2.92c1.61-.58.88,1.17.88,1.17l-25.38,46.81s-1.6,1.9-.58,3.06c1.02,1.17,2.92.44,2.92.44l20.13-8.17-.44-1.75s-6.56,2.62-8.17,3.06c-1.6.44-1.02-1.17-1.02-1.17l24.35-45.65s1.75-2.62,1.9-4.08c.15-1.46-2.04-.87-2.04-.87l-21.58,8.02.29,2.04ZM219.24,96c-6.73,7.93-18.11,11.51-21.91,12.52l-4.93,11.55c12.98-.15,22.75-8.17,22.75-8.17l.73,1.75c-7.29,6.13-24.06,11.38-28.88,10.94-4.81-.44-5.16-7.14-.15-17.65,6.13-12.83,15.61-19.1,24.94-21.58,9.33-2.48,15.6,1.02,7.44,10.65ZM213.85,87.11c-5.25-1.17-12.54,12.1-12.54,12.1l-2.43,5.7c11.04-3.22,20.06-16.68,14.97-17.81ZM276.27,52.69l.44,2.04-19.4,6.85s-2.77,1.31-3.65.29c-.88-1.02-.15-2.48-.15-2.48l3.78-6.89-16.32,9.08s-3.36,1.9-3.65-1.75c-.29-3.65,4.67-21.44,14.15-30.04,9.29-8.43,17.59-10.97,20.94-4.91l1.23-2.24,10.21-.15s-16.19,29.9-17.21,31.79c-1.02,1.9,1.17,1.31,1.17,1.31l8.46-2.92ZM259.49,48.48l11.46-20.93c-.33-1.52-1.01-2.94-2.42-3.3-3.35-.87-14.44,8.17-17.65,19.4-3.17,11.11-.64,10.09,8.6,4.83ZM310.54,22.79c-24.21-5.1-28.15,15.75-29.9,29.02-1.75,13.27-8.75,21.29-21,23.77-12.25,2.48-19.54-8.31-19.54-8.31l-1.31,1.02c6.85,12.4,21.44,13.85,33.25,9.63,11.81-4.23,19.54-15.6,19.54-29.02s2.33-18.23,5.98-22.17c3.65-3.94,12.25-1.9,12.25-1.9l.73-2.04ZM268.98,83.17c-1.02-.29-8.46,2.19-22.17,7.73l.44,1.46s7.73-2.77,8.75-2.19c1.02.58.15,1.31-.58,2.63,0,0-4.81,8.69-10.76,19.59l-11.55,4.91c-1.75.29-1.02-1.31-1.02-1.31l14.29-27.56s1.75-2.92,1.6-4.08c-.15-1.17-1.75-.87-1.75-.87l-22.02,8.46.73,1.89,8.02-3.06c2.63-1.02,1.46,1.02,1.46,1.02l-16.04,30.34c-2.48,4.23,2.92,2.48,2.92,2.48l21.35-8.51c-5.63,10.33-11.88,21.91-15.96,29.8-9.04,17.5-16.19,30.19-16.19,30.19h16.63s5.1-14.73,12.69-32.23c7.58-17.5,26.52-53.81,27.85-56.15,1.17-2.04,2.33-4.23,1.31-4.52Z"/>
      <g>
        <polygon class="cls-2" points="227.53 131.73 19.3 131.73 13.05 143.66 221.66 143.66 227.53 131.73"/>
        <polygon class="cls-2" points="254.94 131.73 249.05 143.66 286.87 143.66 293.13 131.73 254.94 131.73"/>
      </g>
    </g>
    <g>
      <path class="cls-2" d="M24.55,149.16h-13.82L0,169.42h5.82s3.71-7,4.13-7.8h8.26l2.6-4.91h-8.26c.57-1.07,1.11-2.1,1.37-2.59h9.42l2.62-4.95h-1.42Z"/>
      <path class="cls-2" d="M29.97,150.93c-2.91,1.77-5.33,4.44-7.19,7.95-1.21,2.28-1.81,4.22-1.81,5.85,0,.95.2,1.79.61,2.55.81,1.75,2.75,2.64,5.77,2.64,2.84,0,5.45-.77,7.76-2.3,2.92-1.82,5.34-4.5,7.16-7.94,1.23-2.32,1.84-4.27,1.84-5.89,0-.95-.21-1.78-.63-2.51-.81-1.75-2.75-2.64-5.77-2.64-2.83,0-5.44.77-7.75,2.29ZM27.08,163.85h0c-.18-.62-.14-1.84,1.09-4.17,1.04-1.96,2.28-3.48,3.7-4.53,1.37-1.01,2.75-1.52,4.12-1.52,1.69,0,1.9.75,1.99,1.07.17.62.13,1.85-1.1,4.18-1.04,1.96-2.28,3.48-3.68,4.53-1.36,1.01-2.73,1.52-4.1,1.52-1.51,0-1.87-.58-2.02-1.08Z"/>
      <path class="cls-2" d="M52.23,150.93c-2.91,1.77-5.33,4.44-7.19,7.95-1.21,2.28-1.81,4.22-1.81,5.85,0,.95.2,1.79.61,2.55.81,1.75,2.75,2.64,5.77,2.64,2.84,0,5.45-.77,7.76-2.3,2.92-1.82,5.34-4.5,7.16-7.94,1.23-2.32,1.84-4.27,1.84-5.89,0-.95-.21-1.78-.63-2.51-.81-1.75-2.75-2.64-5.77-2.64-2.83,0-5.44.77-7.75,2.29ZM49.34,163.85h0c-.18-.62-.14-1.84,1.09-4.17,1.04-1.96,2.28-3.48,3.7-4.53,1.37-1.01,2.76-1.52,4.12-1.52,1.69,0,1.9.75,1.99,1.07.17.62.13,1.85-1.1,4.18-1.04,1.96-2.28,3.48-3.68,4.53-1.36,1.01-2.73,1.52-4.1,1.52-1.51,0-1.87-.58-2.02-1.08Z"/>
      <path class="cls-2" d="M73.12,149.16l-10.73,20.26h9.5c3.04,0,5.96-1.23,8.69-3.67,1.97-1.77,3.66-3.96,5.01-6.51.54-1.01.98-2.09,1.33-3.21.37-1.2.46-2.34.27-3.39-.26-1.43-1.11-2.47-2.48-3-.73-.29-1.71-.45-2.98-.47h-8.61ZM79.35,154.08c1.23,0,1.88.24,1.9.72,0,.04,0,.08,0,.12,0,.62-.25,1.76-1.32,3.78-.69,1.3-1.48,2.43-2.35,3.37-1.51,1.62-3.08,2.44-4.67,2.44h-2.19c1.02-1.93,5.13-9.68,5.52-10.43h3.09Z"/>
      <path class="cls-2" d="M94.65,150.41c-1.94,1.18-3.41,2.68-4.35,4.47-.59,1.12-.89,2.11-.89,2.97,0,.8.26,1.49.79,2.04.6.65,1.8,1.18,3.76,1.67,0,0,1.8.44,1.8.44,1.18.29,1.63.55,1.79.68,0,0,0,0,0,0h0s-.01.15-.12.36c-.44.83-1.19,1.4-2.3,1.72-.6.17-1.35.26-2.21.26-1.09,0-1.81-.2-1.93-.55-.01-.04-.1-.36.27-1.31l.45-1.16h-5.49l-.24.45c-1.18,2.23-1.25,4.07-.21,5.45,1.01,1.34,2.84,1.99,5.61,1.99,2.55,0,4.88-.61,6.92-1.8,2.04-1.19,3.57-2.73,4.54-4.55,1.04-1.95,1.13-3.53.28-4.69-.54-.73-1.51-1.27-2.98-1.67,0,0-2.88-.77-2.88-.77-1.45-.39-1.75-.6-1.78-.62,0,0-.01-.01-.02-.02h0s.01-.16.14-.41c.3-.57.77-1,1.44-1.32.71-.34,1.52-.52,2.42-.52s1.39.17,1.61.32c.11.07.42.29-.06,1.33l-.57,1.22h5.61l.24-.47c1.13-2.29,1.16-4.12.07-5.44-1.03-1.24-2.69-1.87-4.94-1.87-2.53,0-4.8.6-6.75,1.78Z"/>
      <path class="cls-2" d="M127.54,149.16h-14.09l-10.73,20.26h15.96l2.64-4.99h-10.18c.64-1.2,1.37-2.58,1.65-3.12h8.9l2.6-4.91h-8.9c.52-.97.95-1.79,1.19-2.25h9.73l2.64-4.99h-1.42Z"/>
      <path class="cls-2" d="M132.79,149.16l-10.73,20.26h5.78s3.43-6.48,3.85-7.28h3.33c.71,0,1.02.09,1.14.14-.02.17-.11.62-.6,1.57,0,0-.89,1.72-.89,1.72-.3.58-.55,1.16-.74,1.73,0,0-.59,2.14-.59,2.14l1.13-.03h4.83s.41-1.85.34-1.91c0-.04,0-.1.04-.2.04-.15.19-.53.75-1.58l.66-1.25c.75-1.41,1.1-2.44,1.1-3.23,0-.03,0-.07,0-.1-.01-.34-.09-.74-.33-1.13.8-.38,1.54-.87,2.18-1.48.96-.91,1.71-1.86,2.22-2.82.44-.83.69-1.57.78-2.25.03-.21.04-.42.04-.63,0-.46-.07-.89-.19-1.29-.24-.78-.73-1.39-1.47-1.8-.66-.36-1.68-.55-3.1-.58h-9.52ZM139.79,154.08c.89,0,1.12.15,1.12.15,0,0,.01.01.02.01,0,0,0,.03,0,.08,0,.14-.05.47-.38,1.1-.46.87-1.04,1.43-1.78,1.7-.43.17-1.02.25-1.75.25h-2.81c.66-1.24,1.46-2.76,1.75-3.3h3.83Z"/>
      <path class="cls-2" d="M168.56,149.16h-4.45s-6.47,7.88-9.47,11.52c.96-4,2.77-11.52,2.77-11.52h-5.98l-3.82,20.26h5.1l17.73-20.26h-1.88Z"/>
      <polygon class="cls-2" points="176.49 149.16 172.1 149.16 161.36 169.42 167.18 169.42 177.91 149.16 176.49 149.16"/>
      <path class="cls-2" d="M182.43,151.28h0c-2.77,1.83-5.07,4.44-6.84,7.78-1.71,3.23-2.2,5.76-1.5,7.74.76,2.07,2.69,3.12,5.74,3.12,2.3,0,4.58-.68,6.75-2.02,2.14-1.32,3.97-3.06,5.43-5.17l.93-1.34h-5.93l-.26.32c-.71.89-1.37,1.56-1.95,2-1.03.77-2.09,1.15-3.26,1.15s-1.47-.47-1.6-.93c-.16-.55-.1-1.69,1.13-4.01,1.04-1.96,2.23-3.49,3.54-4.54,1.25-1,2.48-1.51,3.67-1.51.96,0,1.52.21,1.66.62.05.13.12.54-.12,1.52l-.26,1.06h5.51l.23-.49c.62-1.3.83-2.63.61-3.94-.31-1.72-1.6-3.76-6.06-3.76-2.49,0-4.99.81-7.43,2.41Z"/>
      <path class="cls-2" d="M216.67,149.16h-14.09l-10.73,20.26h15.96l2.64-4.99h-10.18c.64-1.2,1.37-2.58,1.65-3.12h8.9l2.6-4.91h-8.89c.51-.97.95-1.79,1.19-2.25h9.73l2.64-4.99h-1.42Z"/>
    </g>
    <polygon class="cls-2" points="241.29 161.58 243.12 157.6 279.85 159.25 241.29 161.58"/>
    <polygon class="cls-2" points="244.69 154.2 246.51 150.22 283.24 151.87 244.69 154.2"/>
    <polygon class="cls-2" points="276.11 166.8 237.56 169.12 239.38 165.14 276.11 166.8"/>
  </g>
  <path class="cls-1" d="M274.7,118.13c0,.99-.16,1.91-.49,2.75-.32.84-.78,1.56-1.37,2.16-.59.6-1.3,1.07-2.12,1.41-.82.33-1.73.5-2.74.5s-1.91-.17-2.73-.5c-.82-.33-1.52-.8-2.1-1.39s-1.04-1.3-1.36-2.13c-.32-.83-.48-1.73-.48-2.71s.16-1.9.48-2.74c.32-.84.77-1.57,1.36-2.19.59-.61,1.29-1.09,2.1-1.44.82-.35,1.73-.52,2.73-.52s1.92.16,2.74.49c.82.32,1.53.78,2.12,1.37.59.59,1.05,1.31,1.37,2.14.32.84.49,1.77.49,2.8ZM273.14,118.07c0-.77-.13-1.48-.38-2.13-.25-.65-.61-1.22-1.06-1.71-.46-.49-1-.87-1.63-1.14-.63-.27-1.33-.41-2.08-.41s-1.45.14-2.08.42c-.62.28-1.16.66-1.62,1.15-.45.49-.8,1.06-1.05,1.73-.25.67-.37,1.4-.37,2.18s.12,1.49.37,2.16c.25.67.59,1.25,1.05,1.74.45.49.99.88,1.62,1.16.62.28,1.32.42,2.08.42s1.45-.14,2.08-.43c.63-.29,1.17-.68,1.63-1.17.46-.5.81-1.08,1.06-1.76s.38-1.41.38-2.2ZM271.6,121.94c0,.13-.09.2-.29.2h-1.26c-.17,0-.31-.08-.44-.25l-2.24-3c-.07-.1-.12-.15-.17-.15h-.03s-.07.03-.07.08v3c0,.12-.03.21-.08.25-.06.04-.12.07-.18.07h-1.29c-.07,0-.13-.02-.18-.06-.06-.04-.08-.1-.08-.19v-7.52c0-.21.1-.32.3-.32h2.68c.87,0,1.52.17,1.96.52.44.35.65.9.65,1.66,0,.7-.15,1.23-.44,1.57-.29.34-.68.57-1.17.69-.08.02-.12.06-.12.12s.02.12.07.18l2.21,2.76c.11.14.17.27.17.38ZM268.95,116.33c0-.32-.1-.58-.3-.78-.2-.2-.54-.29-1-.29h-.35c-.12,0-.18.07-.18.2v1.84c0,.14.07.22.22.22h.25c.45,0,.79-.09,1.02-.28.23-.18.35-.49.35-.91Z"/>
</svg>